<?xml version="1.0" encoding="UTF-8" standalone="no"?><!DOCTYPE svg PUBLIC "-//W3C//DTD SVG 1.1//EN" "http://www.w3.org/Graphics/SVG/1.1/DTD/svg11.dtd"><svg width="100%" height="100%" viewBox="0 0 458 66" version="1.1" xmlns="http://www.w3.org/2000/svg" xmlns:xlink="http://www.w3.org/1999/xlink" xml:space="preserve" xmlns:serif="http://www.serif.com/" style="fill-rule:evenodd;clip-rule:evenodd;stroke-linejoin:round;stroke-miterlimit:1.41421;"><g><path d="M49.277,6.134l-22.075,0l0,58.501l-4.611,0l0,-58.501l-21.844,0l0,-4.611l48.53,0l0,4.611Z" style="fill:#284363;fill-rule:nonzero;"/><path d="M83.801,65.788c-4.265,0 -7.992,-0.452 -11.181,-1.354c-3.189,-0.903 -5.87,-2.191 -8.04,-3.862c-2.171,-1.672 -3.833,-3.689 -4.986,-6.052c-1.153,-2.363 -1.825,-5.024 -2.017,-7.983l4.553,0c0.461,2.844 1.326,5.207 2.594,7.09c1.268,1.882 2.833,3.381 4.697,4.495c1.864,1.115 3.987,1.902 6.369,2.363c2.382,0.461 4.918,0.692 7.608,0.692c2.805,0 5.331,-0.298 7.579,-0.893c2.248,-0.596 4.169,-1.46 5.764,-2.594c1.595,-1.134 2.814,-2.498 3.66,-4.092c0.845,-1.595 1.268,-3.391 1.268,-5.389c0,-2.114 -0.365,-3.891 -1.095,-5.332c-0.73,-1.441 -1.96,-2.699 -3.689,-3.775c-1.729,-1.076 -4.006,-2.036 -6.83,-2.882c-2.824,-0.845 -6.33,-1.71 -10.519,-2.593c-3.458,-0.769 -6.426,-1.653 -8.905,-2.652c-2.478,-0.999 -4.524,-2.161 -6.138,-3.487c-1.614,-1.325 -2.805,-2.843 -3.573,-4.553c-0.769,-1.71 -1.153,-3.698 -1.153,-5.965c0,-2.46 0.519,-4.707 1.556,-6.744c1.037,-2.036 2.507,-3.785 4.409,-5.245c1.902,-1.46 4.189,-2.594 6.859,-3.401c2.671,-0.806 5.62,-1.21 8.847,-1.21c3.228,0 6.187,0.375 8.876,1.124c2.69,0.749 5.044,1.835 7.061,3.257c2.017,1.421 3.65,3.15 4.899,5.187c1.249,2.036 2.046,4.342 2.392,6.916l-4.438,0c-0.423,-1.69 -1.114,-3.266 -2.075,-4.726c-0.961,-1.46 -2.2,-2.718 -3.718,-3.775c-1.517,-1.057 -3.323,-1.883 -5.417,-2.479c-2.095,-0.595 -4.487,-0.893 -7.176,-0.893c-5.649,0 -9.923,1.038 -12.824,3.112c-2.902,2.075 -4.352,4.919 -4.352,8.531c0,1.652 0.269,3.093 0.807,4.322c0.538,1.23 1.45,2.335 2.738,3.315c1.287,0.979 2.987,1.844 5.1,2.593c2.114,0.75 4.746,1.451 7.897,2.104c1.844,0.384 3.746,0.788 5.706,1.21c1.959,0.423 3.871,0.923 5.735,1.499c1.863,0.576 3.64,1.287 5.331,2.133c1.691,0.845 3.161,1.882 4.409,3.112c1.249,1.229 2.248,2.699 2.997,4.409c0.75,1.71 1.124,3.737 1.124,6.081c0,2.69 -0.566,5.158 -1.7,7.406c-1.133,2.248 -2.709,4.188 -4.726,5.821c-2.017,1.634 -4.419,2.902 -7.205,3.805c-2.786,0.902 -5.812,1.354 -9.078,1.354Z" style="fill:#284363;fill-rule:nonzero;"/><path d="M218.095,18.41c-0.422,-1.882 -1.21,-3.64 -2.363,-5.273c-1.153,-1.633 -2.593,-3.055 -4.323,-4.265c-1.729,-1.211 -3.717,-2.162 -5.965,-2.853c-2.248,-0.692 -4.659,-1.038 -7.233,-1.038c-3.651,0 -6.965,0.596 -9.943,1.787c-2.978,1.191 -5.514,2.949 -7.608,5.274c-2.094,2.324 -3.708,5.225 -4.841,8.703c-1.134,3.477 -1.701,7.521 -1.701,12.132c0,4.611 0.567,8.675 1.701,12.191c1.133,3.515 2.747,6.464 4.841,8.847c2.094,2.382 4.611,4.188 7.551,5.418c2.939,1.229 6.215,1.844 9.827,1.844c5.456,0 9.952,-1.22 13.487,-3.66c3.535,-2.44 5.725,-6.004 6.57,-10.692l4.784,0c-0.461,2.998 -1.402,5.678 -2.824,8.041c-1.422,2.363 -3.208,4.351 -5.36,5.965c-2.152,1.614 -4.63,2.844 -7.435,3.689c-2.805,0.845 -5.841,1.268 -9.107,1.268c-4.457,0 -8.463,-0.778 -12.017,-2.334c-3.555,-1.557 -6.581,-3.756 -9.078,-6.6c-2.498,-2.843 -4.419,-6.292 -5.764,-10.346c-1.345,-4.053 -2.017,-8.597 -2.017,-13.631c0,-4.995 0.672,-9.491 2.017,-13.487c1.345,-3.996 3.276,-7.406 5.793,-10.23c2.517,-2.824 5.552,-4.995 9.106,-6.513c3.555,-1.518 7.541,-2.277 11.96,-2.277c3.036,0 5.927,0.442 8.674,1.326c2.748,0.884 5.216,2.123 7.407,3.717c2.19,1.595 4.034,3.497 5.533,5.706c1.498,2.21 2.536,4.64 3.112,7.291l-4.784,0Z" style="fill:#284363;fill-rule:nonzero;"/><path d="M256.654,23.54c-0.422,-0.077 -0.883,-0.115 -1.383,-0.115c-0.461,0 -1.018,0 -1.671,0c-1.307,0 -2.575,0.269 -3.804,0.807c-1.23,0.538 -2.402,1.239 -3.516,2.104c-1.115,0.864 -2.152,1.844 -3.113,2.939c-0.96,1.095 -1.786,2.219 -2.478,3.372l0,31.988l-4.611,0l0,-44.668l4.611,0l0,6.167c1.306,-1.537 2.603,-2.786 3.89,-3.747c1.288,-0.96 2.537,-1.709 3.747,-2.247c1.21,-0.538 2.373,-0.894 3.487,-1.067c1.114,-0.173 2.132,-0.259 3.055,-0.259c0.307,0 0.595,0.01 0.864,0.029c0.269,0.019 0.577,0.048 0.922,0.086l0,4.611Z" style="fill:#284363;fill-rule:nonzero;"/><path d="M283.398,65.788c-3.112,0 -5.937,-0.528 -8.473,-1.585c-2.536,-1.057 -4.716,-2.594 -6.541,-4.611c-1.826,-2.017 -3.238,-4.486 -4.237,-7.406c-0.999,-2.921 -1.498,-6.244 -1.498,-9.972c0,-3.611 0.48,-6.868 1.441,-9.769c0.96,-2.901 2.324,-5.36 4.092,-7.377c1.767,-2.018 3.861,-3.564 6.282,-4.64c2.421,-1.076 5.111,-1.614 8.069,-1.614c3.036,0 5.783,0.538 8.242,1.614c2.46,1.076 4.554,2.622 6.283,4.64c1.729,2.017 3.055,4.476 3.977,7.377c0.922,2.901 1.383,6.177 1.383,9.827l0,1.038l-35.158,0c0.23,3.035 0.787,5.667 1.671,7.896c0.884,2.228 2.037,4.082 3.458,5.562c1.422,1.479 3.065,2.584 4.928,3.314c1.864,0.73 3.891,1.095 6.081,1.095c1.537,0 3.074,-0.182 4.611,-0.548c1.537,-0.365 2.93,-0.912 4.179,-1.642c1.248,-0.73 2.295,-1.633 3.141,-2.709c0.845,-1.076 1.345,-2.306 1.498,-3.689l4.554,0c-0.423,2.113 -1.172,3.987 -2.248,5.62c-1.076,1.633 -2.402,3.016 -3.977,4.15c-1.576,1.133 -3.362,1.988 -5.36,2.564c-1.998,0.577 -4.131,0.865 -6.398,0.865Zm14.352,-27.089c-0.769,-5.111 -2.508,-8.934 -5.217,-11.47c-2.709,-2.536 -6.042,-3.804 -10,-3.804c-1.959,0 -3.784,0.307 -5.475,0.922c-1.691,0.615 -3.199,1.556 -4.525,2.824c-1.325,1.268 -2.44,2.863 -3.343,4.784c-0.903,1.921 -1.546,4.169 -1.93,6.744l30.49,0Z" style="fill:#284363;fill-rule:nonzero;"/><path d="M343.686,58.872c-1.575,1.383 -3.112,2.526 -4.611,3.429c-1.498,0.903 -2.968,1.614 -4.409,2.133c-1.441,0.518 -2.872,0.874 -4.294,1.066c-1.422,0.192 -2.863,0.288 -4.323,0.288c-1.959,0 -3.785,-0.298 -5.475,-0.893c-1.691,-0.596 -3.151,-1.441 -4.381,-2.536c-1.229,-1.096 -2.199,-2.421 -2.91,-3.977c-0.711,-1.557 -1.067,-3.276 -1.067,-5.159c0,-5.11 2.181,-9.087 6.542,-11.931c4.361,-2.843 10.903,-4.265 19.626,-4.265l5.302,0c0,-1.959 -0.115,-3.765 -0.346,-5.418c-0.23,-1.652 -0.768,-3.083 -1.614,-4.294c-0.845,-1.21 -2.094,-2.161 -3.746,-2.853c-1.652,-0.691 -3.9,-1.037 -6.743,-1.037c-4.189,0 -7.33,0.653 -9.424,1.96c-2.094,1.306 -3.333,3.285 -3.718,5.936l-4.553,0c0.461,-4.227 2.113,-7.368 4.957,-9.424c2.843,-2.055 7.07,-3.083 12.68,-3.083c3.112,0 5.754,0.384 7.925,1.153c2.171,0.768 3.938,1.873 5.303,3.314c1.364,1.441 2.353,3.189 2.968,5.245c0.615,2.055 0.922,4.371 0.922,6.945l0,29.164l-4.611,0l0,-5.763Zm0,-17.234l-6.974,0c-6.686,0 -11.671,0.961 -14.957,2.882c-3.285,1.921 -4.928,4.669 -4.928,8.242c0,2.651 1.038,4.717 3.113,6.196c2.075,1.479 4.918,2.219 8.53,2.219c1.575,0 3.103,-0.24 4.582,-0.72c1.479,-0.481 2.872,-1.105 4.179,-1.874c1.306,-0.768 2.507,-1.623 3.602,-2.564c1.095,-0.942 2.046,-1.854 2.853,-2.738l0,-11.643Z" style="fill:#284363;fill-rule:nonzero;"/><path d="M377.98,65.039c-0.653,0.077 -1.306,0.134 -1.96,0.173c-0.653,0.038 -1.306,0.057 -1.959,0.057c-1.998,0 -3.603,-0.278 -4.813,-0.835c-1.21,-0.558 -2.132,-1.393 -2.767,-2.508c-0.634,-1.114 -1.047,-2.507 -1.239,-4.178c-0.192,-1.672 -0.288,-3.622 -0.288,-5.851l0,-27.319l-5.706,0l0,-4.611l5.706,0l0,-11.701l4.611,0l0,11.701l7.32,0l0,4.611l-7.32,0l0,27.723c0,1.844 0.135,3.314 0.404,4.409c0.269,1.095 0.672,1.941 1.21,2.536c0.538,0.596 1.201,0.98 1.988,1.153c0.788,0.173 1.681,0.259 2.68,0.259c0.423,0 0.788,0 1.096,0c0.307,0 0.653,-0.019 1.037,-0.057l0,4.438Z" style="fill:#284363;fill-rule:nonzero;"/><path d="M405.012,18.814c3.035,0 5.783,0.528 8.242,1.585c2.459,1.057 4.553,2.594 6.282,4.611c1.729,2.017 3.055,4.476 3.977,7.377c0.922,2.901 1.383,6.177 1.383,9.827c0,3.728 -0.47,7.051 -1.412,9.972c-0.941,2.92 -2.276,5.389 -4.005,7.406c-1.729,2.017 -3.824,3.554 -6.283,4.611c-2.459,1.057 -5.187,1.585 -8.184,1.585c-2.997,0 -5.716,-0.519 -8.156,-1.556c-2.44,-1.038 -4.524,-2.565 -6.253,-4.582c-1.73,-2.018 -3.074,-4.486 -4.035,-7.407c-0.961,-2.92 -1.441,-6.263 -1.441,-10.029c0,-3.688 0.471,-6.983 1.412,-9.884c0.942,-2.901 2.277,-5.351 4.006,-7.349c1.729,-1.998 3.823,-3.525 6.282,-4.582c2.459,-1.057 5.188,-1.585 8.185,-1.585Zm0,42.363c2.267,0 4.332,-0.394 6.196,-1.182c1.863,-0.787 3.468,-1.978 4.812,-3.573c1.345,-1.595 2.392,-3.573 3.142,-5.937c0.749,-2.363 1.124,-5.12 1.124,-8.271c0,-3.112 -0.375,-5.85 -1.124,-8.213c-0.75,-2.363 -1.797,-4.323 -3.142,-5.879c-1.344,-1.556 -2.949,-2.728 -4.812,-3.516c-1.864,-0.787 -3.929,-1.181 -6.196,-1.181c-2.306,0 -4.39,0.394 -6.254,1.181c-1.863,0.788 -3.468,1.96 -4.813,3.516c-1.344,1.556 -2.382,3.516 -3.112,5.879c-0.73,2.363 -1.095,5.101 -1.095,8.213c0,3.151 0.365,5.908 1.095,8.271c0.73,2.364 1.768,4.342 3.112,5.937c1.345,1.595 2.95,2.786 4.813,3.573c1.864,0.788 3.948,1.182 6.254,1.182Z" style="fill:#284363;fill-rule:nonzero;"/><path d="M457.461,23.54c-0.422,-0.077 -0.883,-0.115 -1.383,-0.115c-0.461,0 -1.018,0 -1.671,0c-1.307,0 -2.575,0.269 -3.804,0.807c-1.23,0.538 -2.402,1.239 -3.516,2.104c-1.115,0.864 -2.152,1.844 -3.113,2.939c-0.96,1.095 -1.786,2.219 -2.478,3.372l0,31.988l-4.611,0l0,-44.668l4.611,0l0,6.167c1.306,-1.537 2.603,-2.786 3.89,-3.747c1.288,-0.96 2.536,-1.709 3.747,-2.247c1.21,-0.538 2.373,-0.894 3.487,-1.067c1.114,-0.173 2.132,-0.259 3.055,-0.259c0.307,0 0.595,0.01 0.864,0.029c0.269,0.019 0.576,0.048 0.922,0.086l0,4.611Z" style="fill:#284363;fill-rule:nonzero;"/></g></svg>